<svg width="101" height="24" viewBox="0 0 101 24" fill="none" xmlns="http://www.w3.org/2000/svg" aria-hidden="true">
  <g transform="translate(0 0.39) scale(0.86)">
    <path d="M30.3446 8.08306V15.1161C30.3446 15.6569 30.099 16.123 29.6 16.4459C23.3667 20.4812 18.6477 22.176 16.9961 22.6479C14.7198 23.2994 13.5129 23.2306 13.3157 23.2172C9.15754 22.9211 2.15451 17.2656 2.15451 17.2656C2.15451 17.2656 7.86949 18.645 21.073 12.4355C23.5485 11.2719 26.3122 10.0147 29.5246 8.54355C29.5246 8.54355 30.2266 8.24351 30.3446 8.08493V8.08306Z" fill="#5427C1"/>
    <path d="M30.0158 7.84426C30.0526 7.81369 30.099 7.77352 30.1203 7.74677C30.1493 7.71047 30.1744 7.67419 30.1899 7.63025C30.2324 7.51179 30.2189 7.36467 30.1512 7.25577C30.0294 7.05706 29.8243 6.92518 29.6 6.77997C23.3667 2.7447 18.6477 1.04996 16.9961 0.578036C14.7197 -0.0734932 13.5129 -0.00470634 13.3157 0.00866815C9.15753 0.304818 2.1545 5.96039 2.1545 5.96039C2.1545 5.96039 7.86948 4.58087 21.073 10.7905C21.4984 10.9911 21.9317 11.1936 22.3746 11.3981L29.5884 8.09261C29.5884 8.09261 29.952 7.89394 30.0158 7.84426Z" fill="#986DFA"/>
    <path d="M8.8481 11.6063C8.85583 10.1064 9.04536 8.60466 9.39541 7.12009L9.44183 6.93471C6.84252 6.33095 4.924 6.20302 3.77326 6.20302C2.82367 6.20302 2.31888 6.28893 2.14676 6.32523C1.83732 6.3921 1.61879 6.6367 1.46214 6.84114C0.531878 8.06013 1.42157e-05 9.79689 1.42157e-05 11.6063C1.42157e-05 13.4156 0.531878 15.1543 1.46214 16.3714C1.61879 16.5758 1.83732 16.8185 2.14676 16.8873C2.31888 16.9236 2.82367 17.0095 3.77326 17.0095C4.924 17.0095 6.84059 16.8816 9.44183 16.2778L9.39541 16.0925C9.04536 14.6079 8.85583 13.1061 8.8481 11.6063Z" fill="#B99AFA"/>
  </g>
  <g transform="translate(34 3.63)">
    <path d="M6.92942 0.206574H11.277L18.2064 16.4203H13.3696L12.184 13.5452H5.90634L4.74405 16.4203H0L6.92942 0.206574ZM10.8825 10.0733L9.06841 5.49572L7.23114 10.0733H10.8825Z" fill="#2C2067"/>
    <path d="M17.135 8.41676V8.3709C17.135 3.67856 20.7863 0 25.7141 0C29.0386 0 31.1776 1.37926 32.6203 3.3572L29.2262 5.9568C28.296 4.80714 27.2265 4.0707 25.6677 4.0707C23.3895 4.0707 21.7843 5.97973 21.7843 8.32495V8.3709C21.7843 10.785 23.3895 12.6711 25.6677 12.6711C27.3657 12.6711 28.3656 11.8887 29.3422 10.7161L32.7364 13.1072C31.2008 15.1999 29.1314 16.7417 25.5285 16.7417C20.8772 16.7417 17.135 13.222 17.135 8.41676Z" fill="#2C2067"/>
    <path d="M34.152 0.321382H38.6621V6.85392L44.2667 0.321382H49.6142L43.4525 7.24416L49.823 16.4203H44.406L40.3137 10.4406L38.6621 12.2579V16.4203H34.152V0.321382Z" fill="#2C2067"/>
    <path d="M48.4867 8.41676V8.3709C48.4867 3.74742 52.2541 0 57.2766 0C62.2991 0 66.0201 3.70338 66.0201 8.32495V8.3709C66.0201 12.9944 62.2527 16.7417 57.2302 16.7417C52.2076 16.7417 48.4867 13.0383 48.4867 8.41676ZM61.4153 8.41676V8.3709C61.4153 6.04864 59.7173 4.02475 57.2302 4.02475C54.7431 4.02475 53.1147 6.00268 53.1147 8.32495V8.3709C53.1147 10.6932 54.8127 12.717 57.2766 12.717C59.7405 12.717 61.4153 10.739 61.4153 8.41676Z" fill="#2C2067"/>
  </g>
</svg>
