<svg width="524" height="124" viewBox="0 0 524 124" fill="none" xmlns="http://www.w3.org/2000/svg">
<path d="M158.782 43.2622V79.5998C158.782 82.3935 157.513 84.8021 154.935 86.4704C122.73 107.319 98.3485 116.075 89.815 118.514C78.054 121.88 71.8187 121.525 70.7995 121.456C49.3159 119.925 13.1335 90.7054 13.1335 90.7054C13.1335 90.7054 42.661 97.8325 110.879 65.7496C123.669 59.7378 137.948 53.2426 154.546 45.6414C154.546 45.6414 158.173 44.0912 158.782 43.2718V43.2622Z" fill="white"/>
<path d="M157.084 42.0284C157.273 41.8704 157.513 41.6629 157.623 41.5247C157.773 41.3371 157.903 41.1497 157.983 40.9227C158.203 40.3106 158.133 39.5505 157.783 38.9879C157.153 37.9612 156.094 37.2798 154.935 36.5296C122.73 15.6806 98.3484 6.92453 89.8149 4.48624C78.0539 1.12 71.8186 1.4754 70.7994 1.5445C49.3158 3.07461 13.1334 32.2951 13.1334 32.2951C13.1334 32.2951 42.6608 25.1675 110.879 57.2504C113.077 58.2869 115.315 59.3335 117.604 60.3898L154.875 43.3115C154.875 43.3115 156.754 42.2851 157.084 42.0284Z" fill="white"/>
<path d="M47.7171 61.4654C47.757 53.7162 48.7362 45.9571 50.5449 38.2868L50.7847 37.329C37.3549 34.2096 27.4425 33.5486 21.4971 33.5486C16.5908 33.5486 13.9828 33.9925 13.0935 34.18C11.4947 34.5255 10.3656 35.7893 9.55625 36.8456C4.74991 43.1437 2.00195 52.1169 2.00195 61.4654C2.00195 70.8139 4.74991 79.797 9.55625 86.0852C10.3656 87.1415 11.4947 88.3954 13.0935 88.7508C13.9828 88.9383 16.5908 89.3822 21.4971 89.3822C27.4425 89.3822 37.3449 88.7212 50.7847 85.6018L50.5449 84.644C48.7362 76.9737 47.757 69.2146 47.7171 61.4654Z" fill="white"/>
<path d="M216.584 20.3524H239.047L274.849 104.123H249.858L243.733 89.2688H211.298L205.293 104.123H180.782L216.584 20.3524ZM237.008 71.3307L227.636 47.6797L218.143 71.3307H237.008Z" fill="white"/>
<path d="M269.313 62.7718V62.5348C269.313 38.291 288.178 19.2852 313.639 19.2852C330.815 19.2852 341.866 26.4113 349.321 36.6307L331.784 50.0619C326.978 44.1221 321.452 40.3171 313.399 40.3171C301.628 40.3171 293.334 50.1804 293.334 62.2974V62.5348C293.334 75.0076 301.628 84.7525 313.399 84.7525C322.172 84.7525 327.338 80.71 332.384 74.6515L349.92 87.0057C341.986 97.818 331.295 105.784 312.679 105.784C288.648 105.784 269.313 87.5987 269.313 62.7718Z" fill="white"/>
<path d="M357.234 20.9457H380.536V54.6971L409.494 20.9457H437.122L405.287 56.7134L438.201 104.123H410.213L389.07 73.2283L380.536 82.6175V104.123H357.234V20.9457Z" fill="white"/>
<path d="M431.297 62.7718V62.5348C431.297 38.6468 450.762 19.2852 476.711 19.2852C502.661 19.2852 521.886 38.4193 521.886 62.2974V62.5348C521.886 86.4228 502.421 105.784 476.471 105.784C450.522 105.784 431.297 86.6499 431.297 62.7718ZM498.094 62.7718V62.5348C498.094 50.5365 489.321 40.0797 476.471 40.0797C463.621 40.0797 455.208 50.299 455.208 62.2974V62.5348C455.208 74.5332 463.981 84.9894 476.711 84.9894C489.441 84.9894 498.094 74.7701 498.094 62.7718Z" fill="white"/>
</svg>
