<svg width="72" height="24" viewBox="0 0 71.407 24" fill="none" xmlns="http://www.w3.org/2000/svg" aria-hidden="true">
  <g transform="translate(0 0.313)">
    <path d="M30.1765 8.13196V15.2127C30.1765 15.7576 29.9318 16.2247 29.435 16.5509C23.2366 20.614 18.5434 22.3193 16.9011 22.7938C14.636 23.45 13.4349 23.3795 13.2421 23.3647C9.10863 23.0644 2.14287 17.3739 2.14287 17.3739C2.14287 17.3739 7.82595 18.7641 20.9567 12.5101C23.4183 11.3387 26.1653 10.0745 29.3609 8.59166C29.3609 8.59166 30.0578 8.29138 30.1765 8.12826V8.13196Z" fill="#0D8452"/>
    <path d="M29.8465 7.89099C29.8836 7.86133 29.9281 7.82055 29.9503 7.7946C29.98 7.75753 30.0059 7.72047 30.0208 7.67598C30.0615 7.55735 30.0504 7.40906 29.9837 7.30155C29.8614 7.10137 29.6612 6.9679 29.435 6.82333C23.2366 2.76027 18.5434 1.05497 16.9011 0.580456C14.636 -0.0757123 13.4349 -0.00527931 13.2421 0.00954936C9.10863 0.30983 2.14287 6.00033 2.14287 6.00033C2.14287 6.00033 7.82595 4.61014 20.9567 10.8641C21.3794 11.0643 21.8094 11.2682 22.2505 11.4758L29.4239 8.1505C29.4239 8.1505 29.7872 7.9466 29.8502 7.8947L29.8465 7.89099Z" fill="#0DB272"/>
    <path d="M8.79718 11.6797C8.8046 10.1672 8.99366 8.65836 9.34213 7.16437L9.39033 6.97901C6.80273 6.37104 4.89724 6.24128 3.75173 6.24128C2.8064 6.24128 2.30593 6.32655 2.1354 6.36362C1.82771 6.43035 1.60898 6.67502 1.45328 6.88262C0.530198 8.10969 7.23427e-05 9.85948 7.23427e-05 11.6797C7.23427e-05 13.5036 0.530198 15.2497 1.45328 16.4768C1.60898 16.6844 1.82771 16.929 2.1354 16.9958C2.30593 17.0328 2.81011 17.1181 3.75173 17.1181C4.89724 17.1181 6.80273 16.9884 9.39033 16.3804L9.34213 16.195C8.99366 14.701 8.8046 13.1885 8.79718 11.6797Z" fill="#63E08D"/>
  </g>
  <g transform="translate(35.526 0.27)">
    <path d="M6.17243 1.19743C5.3272 0.396686 4.17798 -0.00368113 2.96944 2.60328e-05H0V8.38564H2.96944C3.61449 8.38564 4.21876 8.27813 4.76 8.06312C5.82396 7.64421 6.65066 6.88794 7.0881 5.83881C7.73686 4.30775 7.40321 2.33183 6.16873 1.19743H6.17243ZM2.97315 7.1771H1.28268V1.21227C2.09826 1.23451 3.54776 1.10476 4.27807 1.44582C5.83508 1.99819 6.49496 3.9185 5.88698 5.38283C5.42359 6.558 4.241 7.19934 2.97686 7.1771H2.97315Z" fill="white"/>
    <path d="M13.8018 4.82304C15.4144 4.14462 15.7036 1.79057 14.3541 0.704366C13.7462 0.203898 12.9602 0.00371689 12.1298 0.00371689H8.49682V8.38933H9.77579V5.2753H11.7851L14.1095 8.38933H15.6887L13.179 5.05288C13.3977 4.99727 13.609 4.91942 13.8055 4.82304H13.8018ZM9.77208 1.21225H12.0631C13.0937 1.21595 13.9167 1.57556 13.9315 2.62098C13.9575 3.62562 12.9565 4.12608 12.052 4.10013H9.77208V1.21225Z" fill="white"/>
    <path d="M17.9019 9.56617e-06H16.623V8.38562H17.9019V9.56617e-06Z" fill="white"/>
    <path d="M22.9993 6.59876L20.2745 9.56617e-06H18.8584L22.4654 8.44494H23.5109L27.1142 9.56617e-06H25.7352L22.9993 6.59876Z" fill="white"/>
    <path d="M29.0456 7.1882V4.76001H33.4164V3.55889H29.0456V1.19742H33.9317V9.56617e-06H27.7666V8.38562H33.991V7.1882H29.0456Z" fill="white"/>
  </g>
  <g transform="translate(35.526 10.139)">
    <path d="M3.5181 0.10383H5.72757L9.24938 8.43384H6.79153L6.18726 6.95838H2.9991L2.40966 8.43384H0L3.52181 0.10383H3.5181ZM5.52739 5.17152L4.6043 2.82118L3.67009 5.17152H5.52368H5.52739Z" fill="white"/>
    <path d="M9.00101 4.32257V4.30033C9.00101 1.89067 10.8546 1.58398e-05 13.3606 1.58398e-05C15.0511 1.58398e-05 16.1373 0.708083 16.8713 1.72385L15.1475 3.05843C14.6767 2.46899 14.1317 2.09085 13.3384 2.09085C12.1818 2.09085 11.3662 3.07326 11.3662 4.27809V4.30033C11.3662 5.54223 12.1818 6.5098 13.3384 6.5098C14.2022 6.5098 14.7101 6.10943 15.2068 5.50516L16.9306 6.73223C16.1521 7.80731 15.0993 8.60064 13.268 8.60064C10.9065 8.60064 9.00101 6.79155 9.00101 4.32257Z" fill="white"/>
    <path d="M17.672 0.163111H19.963V3.51809L22.8101 0.163111H25.5275L22.3949 3.71828L25.6313 8.4338H22.8768L20.7971 5.36056L19.9593 6.29477V8.4338H17.6683V0.163111H17.672Z" fill="white"/>
    <path d="M25.1272 4.32257V4.30033C25.1272 1.92404 27.0401 1.58398e-05 29.5943 1.58398e-05C32.1485 1.58398e-05 34.0355 1.9018 34.0355 4.27809V4.30033C34.0355 6.67663 32.1226 8.60064 29.5684 8.60064C27.0141 8.60064 25.1272 6.69887 25.1272 4.32257ZM31.6963 4.32257V4.30033C31.6963 3.10662 30.8325 2.06861 29.5684 2.06861C28.3042 2.06861 27.4775 3.08438 27.4775 4.27809V4.30033C27.4775 5.49404 28.3413 6.53204 29.5906 6.53204C30.8399 6.53204 31.6926 5.51628 31.6926 4.32257H31.6963Z" fill="white"/>
  </g>
</svg>
