<svg width="432" height="363" viewBox="0 0 432 363" fill="none" xmlns="http://www.w3.org/2000/svg">
<path d="M359.198 76.7291V141.778C359.198 146.789 356.859 151.084 352.182 154.043C293.385 191.364 248.81 207.018 233.252 211.408C211.776 217.422 200.37 216.801 198.509 216.658C159.279 213.89 93.1801 161.631 93.1801 161.631C93.1801 161.631 147.109 174.374 271.718 116.961C295.104 106.175 321.161 94.5782 351.466 80.9766C351.466 80.9766 358.1 78.2086 359.198 76.7291Z" fill="white"/>
<path d="M355.762 74.9159C356.525 74.4387 357.527 73.8182 357.862 72.5774C358.148 71.4797 358.052 70.048 357.384 69.0935C356.239 67.28 354.33 66.0391 352.182 64.7028C293.385 27.3821 248.81 11.6806 233.252 7.33767C211.776 1.32435 200.37 1.94477 198.509 2.08795C159.279 4.85598 93.1801 57.1146 93.1801 57.1146C93.1801 57.1146 147.109 44.3721 271.718 101.785C275.727 103.646 279.832 105.507 283.984 107.416L352.039 76.8726C352.039 76.8726 354.521 75.6795 355.714 74.9159H355.762Z" fill="white"/>
<path d="M156.32 109.326C156.416 95.4377 158.182 81.5498 161.475 67.8528L161.904 66.1347C137.374 60.5509 119.286 59.3578 108.405 59.3578C99.4325 59.3578 94.6601 60.1691 93.0374 60.5032C90.1262 61.1236 88.0263 63.3667 86.5946 65.2757C77.8132 76.5387 72.8021 92.6219 72.8021 109.326C72.8021 126.077 77.8132 142.113 86.5946 153.376C88.074 155.285 90.1262 157.528 93.0374 158.148C94.6601 158.482 99.4325 159.293 108.405 159.293C119.286 159.293 137.374 158.1 161.904 152.516L161.475 150.798C158.182 137.054 156.368 123.214 156.32 109.326Z" fill="white"/>
<path d="M46.3384 252.13H74.6392L119.739 359.511H88.2885L80.5571 340.469H39.7047L32.1164 359.511H1.23853L46.3384 252.13ZM72.0143 317.466L60.2263 287.16L48.2951 317.466H72.062H72.0143Z" fill="white"/>
<path d="M112.723 306.107V305.821C112.723 274.943 136.49 250.746 168.561 250.746C190.18 250.746 204.116 259.814 213.47 272.843L191.373 289.928C185.312 282.34 178.344 277.52 168.227 277.52C153.384 277.52 142.98 290.072 142.98 305.487V305.773C142.98 321.665 153.432 334.074 168.227 334.074C179.251 334.074 185.789 328.919 192.137 321.236L214.233 336.985C204.259 350.73 190.8 360.895 167.32 360.895C137.062 360.895 112.723 337.749 112.723 306.107Z" fill="white"/>
<path d="M223.446 252.13H252.797V295.703L289.258 252.13H324.05L283.961 298.328L325.434 359.511H290.165L263.535 319.613L252.797 331.735V359.511H223.446V252.13Z" fill="white"/>
<path d="M316.699 306.107V305.821C316.699 275.42 341.23 250.746 373.873 250.746C406.517 250.746 430.761 275.086 430.761 305.487V305.773C430.761 336.174 406.231 360.847 373.587 360.847C340.943 360.847 316.699 336.508 316.699 306.059V306.107ZM400.79 306.107V305.821C400.79 290.549 389.766 277.234 373.539 277.234C357.313 277.234 346.766 290.262 346.766 305.534V305.821C346.766 321.093 357.79 334.408 373.826 334.408C389.861 334.408 400.743 321.379 400.743 306.107H400.79Z" fill="white"/>
</svg>
