<svg preserveAspectRatio="none" width="100%" height="100%" overflow="visible" style="display: block;" viewBox="0 0 56 56" fill="none" xmlns="http://www.w3.org/2000/svg">
<g id="empty">
<g id="Group 1171276622">
<path id="Vector" d="M21.2079 49.8873C20.2135 49.7978 19.4954 48.8958 19.631 47.9066L24.3619 13.4055C24.4908 12.465 25.346 11.7989 26.2894 11.904L50.7316 14.6265C51.7034 14.7348 52.398 15.6184 52.2736 16.5883L47.9134 50.5996C47.7938 51.5327 46.9578 52.2043 46.0208 52.12L21.2079 49.8873Z" fill="url(#paint0_linear_0_8)"/>
<path id="Vector_2" d="M33.3195 5.49845L5.23558 9.53047C4.27759 9.66801 3.61686 10.5565 3.76082 11.5135L9.21794 47.7914C9.36206 48.7495 10.2578 49.4119 11.216 49.2691L39.2074 45.0957C40.1597 44.9537 40.8147 44.0697 40.6733 43.1173L35.3087 6.98078C35.1668 6.02476 34.2762 5.36109 33.3195 5.49845Z" fill="url(#paint1_linear_0_8)"/>
<g id="Union" filter="url(#filter0_d_0_8)">
<path d="M14.5834 36.1662C15.5497 36.1662 16.3332 36.9499 16.3334 37.9162C16.3334 38.8827 15.5499 39.6662 14.5834 39.6662C13.6169 39.6662 12.8334 38.8827 12.8334 37.9162C12.8336 36.95 13.617 36.1663 14.5834 36.1662ZM26.9515 9.06273C31.1939 9.06273 34.6332 12.502 34.6332 16.7444H36.5541C40.7963 16.7446 44.2356 20.1838 44.2357 24.426C44.2357 28.6683 40.7963 32.1075 36.5541 32.1077H24.4554C24.162 34.0746 22.465 35.5832 20.4164 35.5832H19.2504C16.9953 35.5832 15.1665 33.7553 15.1664 31.5002C15.1664 30.8478 15.32 30.2309 15.5922 29.6838C14.301 28.3095 13.5091 26.4605 13.5091 24.426C13.5092 20.8448 15.9598 17.8354 19.2757 16.9846C19.2733 16.9048 19.2699 16.8248 19.2699 16.7444C19.2699 12.502 22.7092 9.0628 26.9515 9.06273Z" fill="url(#paint2_linear_0_8)"/>
</g>
</g>
<path id="Union_2" d="M23.4862 23.3696L21.4921 26.7377L24.1737 26.0502L24.5165 27.3911L19.8251 28.5932L19.4813 27.2524L21.4755 23.8842L18.7948 24.5717L18.451 23.2309L23.1425 22.0288L23.4862 23.3696ZM35.4579 20.0708L35.0175 22.0795L30.118 25.2153L34.1346 26.0971L33.6942 28.1059L26.6639 26.562L27.1053 24.5532L32.0038 21.4184L27.9872 20.5366L28.4276 18.5278L35.4579 20.0708Z" fill="url(#paint3_linear_0_8)"/>
</g>
<defs>
<filter id="filter0_d_0_8" x="5.83336" y="9.06273" width="45.4023" height="44.6035" filterUnits="userSpaceOnUse" color-interpolation-filters="sRGB">
<feFlood flood-opacity="0" result="BackgroundImageFix"/>
<feColorMatrix in="SourceAlpha" type="matrix" values="0 0 0 0 0 0 0 0 0 0 0 0 0 0 0 0 0 0 127 0" result="hardAlpha"/>
<feOffset dy="7"/>
<feGaussianBlur stdDeviation="3.5"/>
<feComposite in2="hardAlpha" operator="out"/>
<feColorMatrix type="matrix" values="0 0 0 0 0 0 0 0 0 0 0 0 0 0 0 0 0 0 0.1 0"/>
<feBlend mode="normal" in2="BackgroundImageFix" result="effect1_dropShadow_0_8"/>
<feBlend mode="normal" in="SourceGraphic" in2="effect1_dropShadow_0_8" result="shape"/>
</filter>
<linearGradient id="paint0_linear_0_8" x1="31.3757" y1="31.1468" x2="51.5495" y2="31.8093" gradientUnits="userSpaceOnUse">
<stop offset="0.0285977" stop-color="#A9A9A9"/>
<stop offset="1" stop-color="#D4D4D4"/>
</linearGradient>
<linearGradient id="paint1_linear_0_8" x1="46.7389" y1="52.271" x2="2.32064" y2="12.2195" gradientUnits="userSpaceOnUse">
<stop offset="0.003" stop-color="white"/>
<stop offset="1" stop-color="#D4D4D4"/>
</linearGradient>
<linearGradient id="paint2_linear_0_8" x1="35.2167" y1="34.0274" x2="36.1769" y2="15.784" gradientUnits="userSpaceOnUse">
<stop stop-color="#F6F6F6"/>
<stop offset="0.9994" stop-color="white"/>
</linearGradient>
<linearGradient id="paint3_linear_0_8" x1="37.0934" y1="41.5834" x2="32.5275" y2="21.0374" gradientUnits="userSpaceOnUse">
<stop/>
<stop offset="1" stop-color="#939393"/>
</linearGradient>
</defs>
</svg>
